<?xml version="1.0" standalone="no"?>
<!DOCTYPE svg PUBLIC "-//W3C//DTD SVG 20010904//EN"
 "http://www.w3.org/TR/2001/REC-SVG-20010904/DTD/svg10.dtd">
<svg version="1.0" xmlns="http://www.w3.org/2000/svg"
 width="167.000000pt" height="167.000000pt" viewBox="0 0 167.000000 167.000000"
 preserveAspectRatio="xMidYMid meet">
<metadata>
Created by potrace 1.14, written by Peter Selinger 2001-2017
</metadata>
<g transform="translate(0.000000,167.000000) scale(0.100000,-0.100000)"
fill="#000000" stroke="none">
<path d="M22 1164 c4 -491 4 -500 27 -569 33 -99 58 -150 112 -230 109 -160
233 -254 424 -317 77 -26 108 -31 215 -34 84 -2 147 1 193 11 297 64 526 274
614 564 23 75 27 105 27 226 1 117 -3 153 -22 218 -107 370 -426 606 -806 596
-174 -5 -343 -66 -481 -174 l-40 -31 -37 21 c-62 35 -133 97 -182 159 l-47 59
3 -499z m423 -285 c28 -27 27 -92 -3 -121 -28 -29 -91 -31 -121 -4 -43 39 -33
116 19 143 31 16 78 8 105 -18z m428 17 c27 -12 49 -63 42 -96 -9 -41 -40 -65
-85 -65 -67 0 -107 63 -78 122 21 45 71 61 121 39z m472 -17 c26 -25 26 -90 1
-118 -40 -44 -118 -33 -144 22 -42 87 72 164 143 96z"/>
</g>
</svg>
